<?xml version="1.0" encoding="utf-8"?>
<!-- Generator: Adobe Illustrator 22.0.0, SVG Export Plug-In . SVG Version: 6.00 Build 0)  -->
<svg version="1.1" id="Camada_1" xmlns="http://www.w3.org/2000/svg" xmlns:xlink="http://www.w3.org/1999/xlink" x="0px" y="0px"
	 viewBox="0 0 597 213" style="enable-background:new 0 0 597 213;" xml:space="preserve">
<style type="text/css">
	.st0{fill:#7C00FF;}
</style>
<g>
	<path class="st0" d="M49.1,191.7c-10.5,0-18.7-4.2-24.8-12.7c-6-8.5-9-18.5-9-30.1V85.9h-12V66.6h12V27.6h25.8v38.9h22.3v19.3H41.1
		v60c0,17,6.8,23.8,20.5,20.3l6.1,21.2C61.6,190.3,55.4,191.7,49.1,191.7z"/>
	<path class="st0" d="M146.6,95.5c-5.3-1.5-10.4-1.9-15.3-1.3c-4.9,0.6-9.2,1.9-13,4c-3.7,2.1-6.7,5.7-9,10.8
		c-2.2,5.1-3.4,11.4-3.4,19v60.4H80V66.6h25.8V84c5.1-6.5,11.2-11.7,18.2-15.4c7-3.8,14.6-5.6,22.5-5.6V95.5z"/>
	<path class="st0" d="M192.6,21.4c0,5.5-1.7,10.2-5,14.2c-3.3,4-7.3,6-11.9,6s-8.6-2-11.9-6c-3.3-4-5-8.7-5-14.2
		c0-5.6,1.7-10.5,5-14.5c3.3-4,7.3-6,11.9-6s8.6,2,11.9,6C191,10.9,192.6,15.8,192.6,21.4z M162.8,188.3V66.6h25.8v121.7H162.8z"/>
	<path class="st0" d="M204.9,209c0.1-13.5,0.1-12.7,0.1-81.8c0-11.6,2.9-22.4,8.6-32.3c5.8-10,13.6-17.8,23.4-23.5
		c9.9-5.7,20.7-8.6,32.4-8.6c11.7,0,22.6,2.9,32.6,8.6c10,5.7,17.9,13.6,23.6,23.5c5.8,10,8.5,20.7,8.3,32.3
		c-0.4,18.2-6.6,33.5-18.7,45.9c-12,12.4-27.3,18.6-45.8,18.6c-7.1,0-14.1-1.5-21.1-4.3c-7-2.9-12.9-6.7-17.7-11.3v33H204.9z
		 M269.4,165.9c10.7,0,19.8-3.8,27.2-11.3c7.5-7.6,11.3-16.7,11.5-27.4c0.3-10.5-3.4-19.6-11.1-27.2c-7.7-7.6-16.9-11.4-27.6-11.4
		c-10.6,0-19.7,3.8-27.1,11.3c-7.5,7.5-11.3,16.6-11.6,27.3c-0.2,10.6,3.5,19.7,11.1,27.3C249.5,162.1,258.7,165.9,269.4,165.9z"/>
	<path class="st0" d="M372.4,3.4v184.9h-25.8V3.4H372.4z"/>
	<path class="st0" d="M481.9,71.5c10,5.7,17.9,13.5,23.6,23.5s8.5,20.7,8.3,32.4c0,2.2-0.2,4.6-0.6,7.1h-26.1h-75.9
		c1.5,8.9,5.8,16.2,13,22c7.1,5.8,15.6,8.9,25.2,9.4c15.5,0.9,27.8-3.4,36.8-12.9l24.4,9.1c-5.4,8.5-13.2,15.6-23.3,21.3
		s-22.7,8.5-37.8,8.3c-11.8-0.2-22.6-3.1-32.6-8.8c-9.9-5.7-17.8-13.5-23.6-23.4c-5.8-9.9-8.5-20.6-8.3-32.2
		c0.2-8.8,2-17.2,5.5-25.1c3.4-7.9,8-14.8,13.7-20.5c5.7-5.8,12.5-10.3,20.3-13.7c7.9-3.4,16.2-5.1,25-5.1
		C461.1,62.9,471.9,65.8,481.9,71.5z M427,96.1c-6.6,5-11.3,11.4-14.1,19.2h73.5c-2.4-7.8-7-14.1-13.9-19.2c-6.9-5-14.6-7.5-23-7.5
		C441.1,88.6,433.6,91.1,427,96.1z"/>
	<path class="st0" d="M593,95.5c-5.3-1.5-10.4-1.9-15.3-1.3c-4.9,0.6-9.2,1.9-13,4c-3.7,2.1-6.7,5.7-9,10.8
		c-2.2,5.1-3.4,11.4-3.4,19v60.4h-25.9V66.6h25.8V84c5.1-6.5,11.2-11.7,18.2-15.4c7-3.8,14.6-5.6,22.5-5.6V95.5z"/>
</g>
</svg>
